<svg width="1106.0150146484375px" height="120.8px" xmlns="http://www.w3.org/2000/svg" viewBox="-303.00750732421875 14.600000000000001 1106.0150146484375 120.8" style="background: rgba(0, 0, 0, 0);" preserveAspectRatio="xMidYMid"><defs><linearGradient id="editing-gradient-gradient" x1="0" x2="1" y1="0.5" y2="0.5" gradientUnits="objectBoundingBox"><stop offset="0" stop-color="#87cefa"></stop><stop offset="1" stop-color="#f0f8ff"></stop></linearGradient></defs><g><g transform="translate(-148.080007314682, 104.79000091552734)"><path d="M0.26-3.07L0.26-3.07L8.19-44.80L21.18-46.08L19.20-36.29L19.20-36.29Q18.50-33.28 17.60-31.17L17.60-31.17L17.60-31.17Q19.01-32.96 22.08-33.66L22.08-33.66L22.08-33.66Q22.98-33.92 24.06-33.92L24.06-33.92L24.06-33.92Q30.02-33.92 33.28-30.30L33.28-30.30L33.28-30.30Q36.54-26.69 36.54-19.71L36.54-19.71L36.54-19.71Q36.54-10.62 31.36-4.93L31.36-4.93L31.36-4.93Q25.79 1.28 15.68 1.28L15.68 1.28L15.68 1.28Q8.70 1.28 3.46-1.02L3.46-1.02L3.46-1.02Q1.60-1.86 0.26-3.07ZM16.51-22.40L13.12-3.65L13.12-3.65Q14.46-2.50 16.13-2.50L16.13-2.50L16.13-2.50Q17.79-2.50 18.75-3.14L18.75-3.14L18.75-3.14Q19.71-3.78 20.42-5.06L20.42-5.06L20.42-5.06Q22.34-8.51 23.87-19.07L23.87-19.07L23.87-19.07Q24.32-22.08 24.32-25.09L24.32-25.09L24.32-25.09Q24.32-28.10 23.65-29.06L23.65-29.06L23.65-29.06Q22.98-30.02 21.70-30.02L21.70-30.02L21.70-30.02Q17.79-30.02 16.51-22.40L16.51-22.40ZM60.74-7.23L60.74-7.23L60.74-7.23Q57.41-3.78 51.33-3.78L51.33-3.78L51.33-3.78Q43.71-3.78 42.11-9.34L42.11-9.34L42.11-9.34Q41.60-11.01 41.60-12.86L41.60-12.86L41.60-12.86Q41.60-14.72 41.98-16.64L41.98-16.64L44.99-32.64L57.98-33.92L54.46-15.30L54.46-15.30Q54.34-14.46 54.14-13.57L54.14-13.57L54.14-13.57Q53.95-12.67 53.95-11.74L53.95-11.74L53.95-11.74Q53.95-10.82 54.27-10.21L54.27-10.21L54.27-10.21Q54.59-9.60 55.04-9.22L55.04-9.22L55.04-9.22Q55.81-8.70 57.18-8.70L57.18-8.70L57.18-8.70Q58.56-8.70 59.74-10.37L59.74-10.37L59.74-10.37Q60.93-12.03 61.50-14.91L61.50-14.91L65.02-32.64L77.63-33.92L72.83-8.77L72.83-8.77Q70.46 3.52 65.60 8.38L65.60 8.38L65.60 8.38Q63.10 10.88 59.87 11.87L59.87 11.87L59.87 11.87Q56.64 12.86 52.48 12.86L52.48 12.86L52.48 12.86Q45.76 12.86 41.92 10.75L41.92 10.75L41.92 10.75Q38.08 8.64 38.08 5.12L38.08 5.12L38.08 5.12Q38.08 2.50 40.06 0.99L40.06 0.99L40.06 0.99Q42.05-0.51 45.12-0.51L45.12-0.51L45.12-0.51Q47.81-0.51 49.86 0.64L49.86 0.64L49.86 0.64Q51.07 1.34 51.65 2.24L51.65 2.24L51.65 2.24Q50.18 3.52 50.18 5.63L50.18 5.63L50.18 5.63Q50.18 8.45 52.74 8.45L52.74 8.45L52.74 8.45Q56.96 8.45 59.39-1.28L59.39-1.28L59.39-1.28Q60.10-4.16 60.74-7.23ZM118.08-29.57L118.08-29.57L118.08-29.57Q119.04-31.49 119.04-33.28L119.04-33.28L119.04-33.28Q119.04-35.07 118.85-36.06L118.85-36.06L118.85-36.06Q118.66-37.06 118.21-37.82L118.21-37.82L118.21-37.82Q117.25-39.49 115.33-39.49L115.33-39.49L115.33-39.49Q112.96-39.49 111.04-37.76L111.04-37.76L111.04-37.76Q108.99-35.97 108.99-33.15L108.99-33.15L108.99-33.15Q108.99-31.36 110.24-29.98L110.24-29.98L110.24-29.98Q111.49-28.61 113.41-27.33L113.41-27.33L113.41-27.33Q115.33-26.05 117.50-24.77L117.50-24.77L117.50-24.77Q119.68-23.49 121.60-21.95L121.60-21.95L121.60-21.95Q126.02-18.43 126.02-13.70L126.02-13.70L126.02-13.70Q126.02-10.50 124.32-7.78L124.32-7.78L124.32-7.78Q122.62-5.06 119.81-3.07L119.81-3.07L119.81-3.07Q113.66 1.28 105.54 1.28L105.54 1.28L105.54 1.28Q98.94 1.28 95.55-0.86L95.55-0.86L95.55-0.86Q92.16-3.01 92.16-6.27L92.16-6.27L92.16-6.27Q92.16-12.10 96.70-13.57L96.70-13.57L96.70-13.57Q97.98-14.02 99.94-14.02L99.94-14.02L99.94-14.02Q101.89-14.02 104.13-13.18L104.13-13.18L104.13-13.18Q103.10-10.56 103.10-8.19L103.10-8.19L103.10-8.19Q103.10-3.07 106.75-3.07L106.75-3.07L106.75-3.07Q109.12-3.07 111.07-4.80L111.07-4.80L111.07-4.80Q113.02-6.53 113.02-8.48L113.02-8.48L113.02-8.48Q113.02-10.43 111.78-11.84L111.78-11.84L111.78-11.84Q110.53-13.25 108.67-14.37L108.67-14.37L108.67-14.37Q106.82-15.49 104.67-16.58L104.67-16.58L104.67-16.58Q102.53-17.66 100.67-19.20L100.67-19.20L100.67-19.20Q96.32-22.72 96.32-28.35L96.32-28.35L96.32-28.35Q96.32-32 98.11-34.85L98.11-34.85L98.11-34.85Q99.90-37.70 102.78-39.62L102.78-39.62L102.78-39.62Q108.54-43.52 115.62-43.52L115.62-43.52L115.62-43.52Q122.69-43.52 126.11-41.41L126.11-41.41L126.11-41.41Q129.54-39.30 129.54-35.71L129.54-35.71L129.54-35.71Q129.54-32.58 127.10-30.59L127.10-30.59L127.10-30.59Q124.99-28.93 122.43-28.93L122.43-28.93L122.43-28.93Q119.87-28.93 118.08-29.57ZM156.80-10.82L156.80-10.82L156.80-10.82Q158.40-9.73 158.40-7.33L158.40-7.33L158.40-7.33Q158.40-4.93 157.18-3.39L157.18-3.39L157.18-3.39Q155.97-1.86 153.98-0.83L153.98-0.83L153.98-0.83Q149.89 1.28 145.47 1.28L145.47 1.28L145.47 1.28Q141.06 1.28 138.46 0.32L138.46 0.32L138.46 0.32Q135.87-0.64 134.14-2.43L134.14-2.43L134.14-2.43Q130.75-5.82 130.75-12.03L130.75-12.03L130.75-12.03Q130.75-21.70 136-27.58L136-27.58L136-27.58Q141.63-33.92 151.42-33.92L151.42-33.92L151.42-33.92Q157.50-33.92 160.51-31.36L160.51-31.36L160.51-31.36Q162.75-29.44 162.75-26.30L162.75-26.30L162.75-26.30Q162.75-15.04 143.30-15.04L143.30-15.04L143.30-15.04Q143.04-13.38 143.04-11.97L143.04-11.97L143.04-11.97Q143.04-9.02 144.35-7.90L144.35-7.90L144.35-7.90Q145.66-6.78 148.10-6.78L148.10-6.78L148.10-6.78Q150.53-6.78 153.12-7.90L153.12-7.90L153.12-7.90Q155.71-9.02 156.80-10.82ZM143.74-17.79L143.74-17.79L143.74-17.79Q148.29-17.79 150.91-20.61L150.91-20.61L150.91-20.61Q153.54-23.30 153.54-27.58L153.54-27.58L153.54-27.58Q153.54-29.06 152.99-29.86L152.99-29.86L152.99-29.86Q152.45-30.66 151.36-30.66L151.36-30.66L151.36-30.66Q150.27-30.66 149.34-30.24L149.34-30.24L149.34-30.24Q148.42-29.82 147.46-28.42L147.46-28.42L147.46-28.42Q145.09-25.22 143.74-17.79ZM184.96-17.98L184.96-17.98L184.96-17.98Q187.26-22.08 187.26-26.24L187.26-26.24L187.26-26.24Q187.26-28.99 185.28-28.99L185.28-28.99L185.28-28.99Q183.74-28.99 182.14-26.37L182.14-26.37L182.14-26.37Q180.48-23.74 179.97-20.35L179.97-20.35L176.64 0L163.39 1.28L169.92-32.64L180.48-33.92L179.33-27.46L179.33-27.46Q182.46-33.92 189.50-33.92L189.50-33.92L189.50-33.92Q193.22-33.92 195.23-32L195.23-32L195.23-32Q197.25-30.08 197.25-26.14L197.25-26.14L197.25-26.14Q197.25-22.21 194.66-19.71L194.66-19.71L194.66-19.71Q192.06-17.22 187.65-17.22L187.65-17.22L187.65-17.22Q185.73-17.22 184.96-17.98ZM230.46-7.10L230.46-7.10L230.46-7.10Q230.46-4.29 233.34-3.46L233.34-3.46L233.34-3.46Q232.64-1.09 229.89 0.19L229.89 0.19L229.89 0.19Q227.58 1.28 225.06 1.28L225.06 1.28L225.06 1.28Q222.53 1.28 221.22 0.61L221.22 0.61L221.22 0.61Q219.90-0.06 219.20-1.15L219.20-1.15L219.20-1.15Q218.05-2.82 218.05-5.95L218.05-5.95L218.05-5.95Q218.05-7.81 219.07-12.93L219.07-12.93L219.97-17.79L219.97-17.79Q221.06-23.36 221.06-25.41L221.06-25.41L221.06-25.41Q221.06-28.99 219.07-28.99L219.07-28.99L219.07-28.99Q216.58-28.99 214.98-25.34L214.98-25.34L214.98-25.34Q214.34-23.94 213.89-21.82L213.89-21.82L209.54 0L196.67 1.28L205.70-44.80L218.56-46.08L218.05-43.52L218.05-43.52Q216.26-33.66 214.72-30.34L214.72-30.34L214.72-30.34Q218.30-33.92 224.90-33.92L224.90-33.92L224.90-33.92Q231.87-33.92 233.15-29.31L233.15-29.31L233.15-29.31Q233.60-27.84 233.60-26.56L233.60-26.56L233.60-26.56Q233.60-25.28 233.50-24.29L233.50-24.29L233.50-24.29Q233.41-23.30 233.09-21.50L233.09-21.50L232.26-16.90L230.78-9.66L230.78-9.66Q230.46-8.19 230.46-7.10ZM253.89-3.52L253.89-3.52L253.89-3.52Q251.90 1.28 245.57 1.28L245.57 1.28L245.57 1.28Q242.30 1.28 240.26-0.96L240.26-0.96L240.26-0.96Q238.53-2.94 238.53-4.93L238.53-4.93L238.53-4.93Q238.53-10.11 240.90-20.22L240.90-20.22L243.26-32.64L256.26-33.92L252.35-13.70L252.35-13.70Q251.26-8.96 251.26-7.30L251.26-7.30L251.26-7.30Q251.26-3.65 253.89-3.52ZM244.42-41.54L244.42-41.54L244.42-41.54Q244.42-44.03 246.50-45.38L246.50-45.38L246.50-45.38Q248.58-46.72 251.58-46.72L251.58-46.72L251.58-46.72Q254.59-46.72 256.42-45.38L256.42-45.38L256.42-45.38Q258.24-44.03 258.24-41.54L258.24-41.54L258.24-41.54Q258.24-39.04 256.22-37.76L256.22-37.76L256.22-37.76Q254.21-36.48 251.20-36.48L251.20-36.48L251.20-36.48Q248.19-36.48 246.30-37.76L246.30-37.76L246.30-37.76Q244.42-39.04 244.42-41.54ZM274.69-3.52L274.69-3.52L274.69-3.52Q272.70 1.28 266.37 1.28L266.37 1.28L266.37 1.28Q263.10 1.28 261.06-0.96L261.06-0.96L261.06-0.96Q259.33-2.94 259.33-4.93L259.33-4.93L259.33-4.93Q259.33-10.11 261.70-20.22L261.70-20.22L264.06-32.64L277.06-33.92L273.15-13.70L273.15-13.70Q272.06-8.96 272.06-7.30L272.06-7.30L272.06-7.30Q272.06-3.65 274.69-3.52ZM265.22-41.54L265.22-41.54L265.22-41.54Q265.22-44.03 267.30-45.38L267.30-45.38L267.30-45.38Q269.38-46.72 272.38-46.72L272.38-46.72L272.38-46.72Q275.39-46.72 277.22-45.38L277.22-45.38L277.22-45.38Q279.04-44.03 279.04-41.54L279.04-41.54L279.04-41.54Q279.04-39.04 277.02-37.76L277.02-37.76L277.02-37.76Q275.01-36.48 272-36.48L272-36.48L272-36.48Q268.99-36.48 267.10-37.76L267.10-37.76L267.10-37.76Q265.22-39.04 265.22-41.54ZM298.75 0L291.39 0L302.98-42.24L316.35-42.24L319.30-18.11L331.20-42.24L342.40-42.24L343.55-10.62L343.55-10.62Q343.81-4.35 346.88-2.43L346.88-2.43L346.88-2.43Q346.18-1.15 344.13 0.06L344.13 0.06L344.13 0.06Q342.08 1.28 339.36 1.28L339.36 1.28L339.36 1.28Q336.64 1.28 335.04 0.51L335.04 0.51L335.04 0.51Q333.44-0.26 332.54-1.54L332.54-1.54L332.54-1.54Q330.94-3.84 330.94-8.26L330.94-8.26L330.94-28.03L318.34 0L310.40 0L305.92-28.74L298.75 0ZM364.99-3.52L364.99-3.52L364.99-3.52Q363.01 1.28 356.67 1.28L356.67 1.28L356.67 1.28Q353.41 1.28 351.36-0.96L351.36-0.96L351.36-0.96Q349.63-2.94 349.63-4.93L349.63-4.93L349.63-4.93Q349.63-10.11 352.00-20.22L352.00-20.22L354.37-32.64L367.36-33.92L363.46-13.70L363.46-13.70Q362.37-8.96 362.37-7.30L362.37-7.30L362.37-7.30Q362.37-3.65 364.99-3.52ZM355.52-41.54L355.52-41.54L355.52-41.54Q355.52-44.03 357.60-45.38L357.60-45.38L357.60-45.38Q359.68-46.72 362.69-46.72L362.69-46.72L362.69-46.72Q365.70-46.72 367.52-45.38L367.52-45.38L367.52-45.38Q369.34-44.03 369.34-41.54L369.34-41.54L369.34-41.54Q369.34-39.04 367.33-37.76L367.33-37.76L367.33-37.76Q365.31-36.48 362.30-36.48L362.30-36.48L362.30-36.48Q359.30-36.48 357.41-37.76L357.41-37.76L357.41-37.76Q355.52-39.04 355.52-41.54ZM390.46-17.98L390.46-17.98L390.46-17.98Q392.77-22.08 392.77-26.24L392.77-26.24L392.77-26.24Q392.77-28.99 390.78-28.99L390.78-28.99L390.78-28.99Q389.25-28.99 387.65-26.37L387.65-26.37L387.65-26.37Q385.98-23.74 385.47-20.35L385.47-20.35L382.14 0L368.90 1.28L375.42-32.64L385.98-33.92L384.83-27.46L384.83-27.46Q387.97-33.92 395.01-33.92L395.01-33.92L395.01-33.92Q398.72-33.92 400.74-32L400.74-32L400.74-32Q402.75-30.08 402.75-26.14L402.75-26.14L402.75-26.14Q402.75-22.21 400.16-19.71L400.16-19.71L400.16-19.71Q397.57-17.22 393.15-17.22L393.15-17.22L393.15-17.22Q391.23-17.22 390.46-17.98ZM419.14-3.52L419.14-3.52L419.14-3.52Q417.15 1.28 410.82 1.28L410.82 1.28L410.82 1.28Q407.55 1.28 405.50-0.96L405.50-0.96L405.50-0.96Q403.78-2.94 403.78-4.93L403.78-4.93L403.78-4.93Q403.78-10.11 406.14-20.22L406.14-20.22L408.51-32.64L421.50-33.92L417.60-13.70L417.60-13.70Q416.51-8.96 416.51-7.30L416.51-7.30L416.51-7.30Q416.51-3.65 419.14-3.52ZM409.66-41.54L409.66-41.54L409.66-41.54Q409.66-44.03 411.74-45.38L411.74-45.38L411.74-45.38Q413.82-46.72 416.83-46.72L416.83-46.72L416.83-46.72Q419.84-46.72 421.66-45.38L421.66-45.38L421.66-45.38Q423.49-44.03 423.49-41.54L423.49-41.54L423.49-41.54Q423.49-39.04 421.47-37.76L421.47-37.76L421.47-37.76Q419.46-36.48 416.45-36.48L416.45-36.48L416.45-36.48Q413.44-36.48 411.55-37.76L411.55-37.76L411.55-37.76Q409.66-39.04 409.66-41.54ZM443.71-22.46L443.71-22.46L443.71-22.46Q444.61-24.83 444.61-26.88L444.61-26.88L444.61-26.88Q444.61-30.66 441.54-30.66L441.54-30.66L441.54-30.66Q439.94-30.66 438.62-29.22L438.62-29.22L438.62-29.22Q437.31-27.78 437.31-25.98L437.31-25.98L437.31-25.98Q437.31-24.70 438.34-23.68L438.34-23.68L438.34-23.68Q439.81-22.27 443.58-19.97L443.58-19.97L443.58-19.97Q447.36-17.66 448.80-15.78L448.80-15.78L448.80-15.78Q450.24-13.89 450.24-11.30L450.24-11.30L450.24-11.30Q450.24-8.70 448.99-6.34L448.99-6.34L448.99-6.34Q447.74-3.97 445.50-2.30L445.50-2.30L445.50-2.30Q440.70 1.28 433.02 1.28L433.02 1.28L433.02 1.28Q428.86 1.28 425.66-0.90L425.66-0.90L425.66-0.90Q422.46-3.01 422.46-5.50L422.46-5.50L422.46-5.50Q422.46-8 424.29-9.47L424.29-9.47L424.29-9.47Q426.11-10.94 428.80-10.94L428.80-10.94L428.80-10.94Q431.49-10.94 433.15-9.92L433.15-9.92L433.15-9.92Q432.32-7.81 432.32-6.40L432.32-6.40L432.32-6.40Q432.32-2.18 435.90-2.18L435.90-2.18L435.90-2.18Q437.44-2.18 438.46-3.14L438.46-3.14L438.46-3.14Q439.49-4.10 439.49-5.76L439.49-5.76L439.49-5.76Q439.49-9.02 433.98-12.48L433.98-12.48L433.98-12.48Q429.50-15.42 428.48-16.58L428.48-16.58L428.48-16.58Q426.75-18.62 426.75-21.18L426.75-21.18L426.75-21.18Q426.75-23.74 427.97-26.18L427.97-26.18L427.97-26.18Q429.18-28.61 431.42-30.34L431.42-30.34L431.42-30.34Q436.10-33.92 444.22-33.92L444.22-33.92L444.22-33.92Q448.38-33.92 450.85-32.26L450.85-32.26L450.85-32.26Q453.31-30.59 453.31-27.78L453.31-27.78L453.31-27.78Q453.31-24.96 451.62-23.36L451.62-23.36L451.62-23.36Q449.92-21.76 446.85-21.76L446.85-21.76L446.85-21.76Q444.74-21.76 443.71-22.46ZM487.87-7.10L487.87-7.10L487.87-7.10Q487.87-4.29 490.75-3.46L490.75-3.46L490.75-3.46Q490.05-1.09 487.30 0.19L487.30 0.19L487.30 0.19Q484.99 1.28 482.46 1.28L482.46 1.28L482.46 1.28Q479.94 1.28 478.62 0.61L478.62 0.61L478.62 0.61Q477.31-0.06 476.61-1.15L476.61-1.15L476.61-1.15Q475.46-2.82 475.46-5.95L475.46-5.95L475.46-5.95Q475.46-7.81 476.48-12.93L476.48-12.93L477.38-17.79L477.38-17.79Q478.46-23.36 478.46-25.41L478.46-25.41L478.46-25.41Q478.46-28.99 476.48-28.99L476.48-28.99L476.48-28.99Q473.98-28.99 472.38-25.34L472.38-25.34L472.38-25.34Q471.74-23.94 471.30-21.82L471.30-21.82L466.94 0L454.08 1.28L463.10-44.80L475.97-46.08L475.46-43.52L475.46-43.52Q473.66-33.66 472.13-30.34L472.13-30.34L472.13-30.34Q475.71-33.92 482.30-33.92L482.30-33.92L482.30-33.92Q489.28-33.92 490.56-29.31L490.56-29.31L490.56-29.31Q491.01-27.84 491.01-26.56L491.01-26.56L491.01-26.56Q491.01-25.28 490.91-24.29L490.91-24.29L490.91-24.29Q490.82-23.30 490.50-21.50L490.50-21.50L489.66-16.90L488.19-9.66L488.19-9.66Q487.87-8.19 487.87-7.10ZM523.01 1.28L523.01 1.28L523.01 1.28Q515.26 1.28 515.26-4.74L515.26-4.74L515.26-4.74Q515.33-6.40 515.84-9.22L515.84-9.22L516.99-15.10L516.99-15.10Q518.72-23.42 518.72-25.28L518.72-25.28L518.72-25.28Q518.72-28.99 516.54-28.99L516.54-28.99L516.54-28.99Q512.90-28.99 510.98-19.46L510.98-19.46L507.20 0L494.34 1.28L500.99-32.70L511.49-33.92L510.46-27.65L510.46-27.65Q513.47-33.92 522.69-33.92L522.69-33.92L522.69-33.92Q527.17-33.92 529.06-32.03L529.06-32.03L529.06-32.03Q530.94-30.14 530.94-25.92L530.94-25.92L530.94-25.92Q530.94-21.95 528.90-12.67L528.90-12.67L528.90-12.67Q527.94-8.51 527.94-6.94L527.94-6.94L527.94-6.94Q527.94-5.38 528.80-4.48L528.80-4.48L528.80-4.48Q529.66-3.58 530.94-3.46L530.94-3.46L530.94-3.46Q530.30-1.28 528.10 0L528.10 0L528.10 0Q525.89 1.28 523.01 1.28ZM556.42-7.23L556.42-7.23L556.42-7.23Q553.09-3.78 547.01-3.78L547.01-3.78L547.01-3.78Q539.39-3.78 537.79-9.34L537.79-9.34L537.79-9.34Q537.28-11.01 537.28-12.86L537.28-12.86L537.28-12.86Q537.28-14.72 537.66-16.64L537.66-16.64L540.67-32.64L553.66-33.92L550.14-15.30L550.14-15.30Q550.02-14.46 549.82-13.57L549.82-13.57L549.82-13.57Q549.63-12.67 549.63-11.74L549.63-11.74L549.63-11.74Q549.63-10.82 549.95-10.21L549.95-10.21L549.95-10.21Q550.27-9.60 550.72-9.22L550.72-9.22L550.72-9.22Q551.49-8.70 552.86-8.70L552.86-8.70L552.86-8.70Q554.24-8.70 555.42-10.37L555.42-10.37L555.42-10.37Q556.61-12.03 557.18-14.91L557.18-14.91L560.70-32.64L573.31-33.92L568.51-8.77L568.51-8.77Q566.14 3.52 561.28 8.38L561.28 8.38L561.28 8.38Q558.78 10.88 555.55 11.87L555.55 11.87L555.55 11.87Q552.32 12.86 548.16 12.86L548.16 12.86L548.16 12.86Q541.44 12.86 537.60 10.75L537.60 10.75L537.60 10.75Q533.76 8.64 533.76 5.12L533.76 5.12L533.76 5.12Q533.76 2.50 535.74 0.99L535.74 0.99L535.74 0.99Q537.73-0.51 540.80-0.51L540.80-0.51L540.80-0.51Q543.49-0.51 545.54 0.64L545.54 0.64L545.54 0.64Q546.75 1.34 547.33 2.24L547.33 2.24L547.33 2.24Q545.86 3.52 545.86 5.63L545.86 5.63L545.86 5.63Q545.86 8.45 548.42 8.45L548.42 8.45L548.42 8.45Q552.64 8.45 555.07-1.28L555.07-1.28L555.07-1.28Q555.78-4.16 556.42-7.23ZM607.04-26.62L607.04-26.62L607.04-26.62Q607.04-23.94 604.80-22.27L604.80-22.27L604.80-22.27Q602.56-20.61 598.91-20.61L598.91-20.61L598.91-20.61Q597.38-20.61 596.48-21.06L596.48-21.06L596.48-21.06Q597.18-22.72 597.41-24.80L597.41-24.80L597.41-24.80Q597.63-26.88 597.63-27.46L597.63-27.46L597.63-27.46Q597.63-30.14 595.78-30.14L595.78-30.14L595.78-30.14Q594.50-30.14 593.06-28.54L593.06-28.54L593.06-28.54Q591.62-26.94 590.40-24.45L590.40-24.45L590.40-24.45Q587.71-18.69 587.71-12.86L587.71-12.86L587.71-12.86Q587.71-9.66 588.93-8.22L588.93-8.22L588.93-8.22Q590.14-6.78 592.83-6.78L592.83-6.78L592.83-6.78Q596.54-6.78 599.49-9.86L599.49-9.86L599.49-9.86Q600.32-10.82 600.77-11.90L600.77-11.90L600.77-11.90Q603.20-10.62 603.20-7.10L603.20-7.10L603.20-7.10Q603.20-3.52 599.23-1.15L599.23-1.15L599.23-1.15Q595.14 1.28 588.61 1.28L588.61 1.28L588.61 1.28Q575.62 1.28 575.62-12.48L575.62-12.48L575.62-12.48Q575.62-22.53 581.31-28.29L581.31-28.29L581.31-28.29Q586.82-33.92 596.93-33.92L596.93-33.92L596.93-33.92Q607.04-33.92 607.04-26.62ZM640.96-7.10L640.96-7.10L640.96-7.10Q640.96-4.29 643.84-3.46L643.84-3.46L643.84-3.46Q643.14-1.09 640.38 0.19L640.38 0.19L640.38 0.19Q638.08 1.28 635.55 1.28L635.55 1.28L635.55 1.28Q633.02 1.28 631.71 0.61L631.71 0.61L631.71 0.61Q630.40-0.06 629.70-1.15L629.70-1.15L629.70-1.15Q628.54-2.82 628.54-5.95L628.54-5.95L628.54-5.95Q628.54-7.81 629.57-12.93L629.57-12.93L630.46-17.79L630.46-17.79Q631.55-23.36 631.55-25.41L631.55-25.41L631.55-25.41Q631.55-28.99 629.57-28.99L629.57-28.99L629.57-28.99Q627.07-28.99 625.47-25.34L625.47-25.34L625.47-25.34Q624.83-23.94 624.38-21.82L624.38-21.82L620.03 0L607.17 1.28L616.19-44.80L629.06-46.08L628.54-43.52L628.54-43.52Q626.75-33.66 625.22-30.34L625.22-30.34L625.22-30.34Q628.80-33.92 635.39-33.92L635.39-33.92L635.39-33.92Q642.37-33.92 643.65-29.31L643.65-29.31L643.65-29.31Q644.10-27.84 644.10-26.56L644.10-26.56L644.10-26.56Q644.10-25.28 644.00-24.29L644.00-24.29L644.00-24.29Q643.90-23.30 643.58-21.50L643.58-21.50L642.75-16.90L641.28-9.66L641.28-9.66Q640.96-8.19 640.96-7.10ZM674.94-10.82L674.94-10.82L674.94-10.82Q676.54-9.73 676.54-7.33L676.54-7.33L676.54-7.33Q676.54-4.93 675.33-3.39L675.33-3.39L675.33-3.39Q674.11-1.86 672.13-0.83L672.13-0.83L672.13-0.83Q668.03 1.28 663.62 1.28L663.62 1.28L663.62 1.28Q659.20 1.28 656.61 0.32L656.61 0.32L656.61 0.32Q654.02-0.64 652.29-2.43L652.29-2.43L652.29-2.43Q648.90-5.82 648.90-12.03L648.90-12.03L648.90-12.03Q648.90-21.70 654.14-27.58L654.14-27.58L654.14-27.58Q659.78-33.92 669.57-33.92L669.57-33.92L669.57-33.92Q675.65-33.92 678.66-31.36L678.66-31.36L678.66-31.36Q680.90-29.44 680.90-26.30L680.90-26.30L680.90-26.30Q680.90-15.04 661.44-15.04L661.44-15.04L661.44-15.04Q661.18-13.38 661.18-11.97L661.18-11.97L661.18-11.97Q661.18-9.02 662.50-7.90L662.50-7.90L662.50-7.90Q663.81-6.78 666.24-6.78L666.24-6.78L666.24-6.78Q668.67-6.78 671.26-7.90L671.26-7.90L671.26-7.90Q673.86-9.02 674.94-10.82ZM661.89-17.79L661.89-17.79L661.89-17.79Q666.43-17.79 669.06-20.61L669.06-20.61L669.06-20.61Q671.68-23.30 671.68-27.58L671.68-27.58L671.68-27.58Q671.68-29.06 671.14-29.86L671.14-29.86L671.14-29.86Q670.59-30.66 669.50-30.66L669.50-30.66L669.50-30.66Q668.42-30.66 667.49-30.24L667.49-30.24L667.49-30.24Q666.56-29.82 665.60-28.42L665.60-28.42L665.60-28.42Q663.23-25.22 661.89-17.79ZM710.14 1.28L710.14 1.28L710.14 1.28Q702.40 1.28 702.40-4.74L702.40-4.74L702.40-4.74Q702.46-6.40 702.98-9.22L702.98-9.22L704.13-15.10L704.13-15.10Q705.86-23.42 705.86-25.28L705.86-25.28L705.86-25.28Q705.86-28.99 703.68-28.99L703.68-28.99L703.68-28.99Q700.03-28.99 698.11-19.46L698.11-19.46L694.34 0L681.47 1.28L688.13-32.70L698.62-33.92L697.60-27.65L697.60-27.65Q700.61-33.92 709.82-33.92L709.82-33.92L709.82-33.92Q714.30-33.92 716.19-32.03L716.19-32.03L716.19-32.03Q718.08-30.14 718.08-25.92L718.08-25.92L718.08-25.92Q718.08-21.95 716.03-12.67L716.03-12.67L716.03-12.67Q715.07-8.51 715.07-6.94L715.07-6.94L715.07-6.94Q715.07-5.38 715.94-4.48L715.94-4.48L715.94-4.48Q716.80-3.58 718.08-3.46L718.08-3.46L718.08-3.46Q717.44-1.28 715.23 0L715.23 0L715.23 0Q713.02 1.28 710.14 1.28ZM739.71-30.34L739.71-30.34L739.71-30.34Q743.17-33.92 750.46-33.92L750.46-33.92L750.46-33.92Q754.50-33.92 756.70-31.78L756.70-31.78L756.70-31.78Q758.91-29.63 758.91-25.70L758.91-25.70L758.91-25.70Q758.91-21.76 756.70-18.98L756.70-18.98L756.70-18.98Q754.50-16.19 750.40-15.04L750.40-15.04L750.40-15.04Q750.72-13.76 751.17-12.42L751.17-12.42L752.06-9.86L752.06-9.86Q753.28-6.59 754.24-5.44L754.24-5.44L754.24-5.44Q755.20-4.29 756.48-3.90L756.48-3.90L756.48-3.90Q755.78-1.28 753.22 0.13L753.22 0.13L753.22 0.13Q751.17 1.28 748.35 1.28L748.35 1.28L748.35 1.28Q740.10 1.28 739.01-11.46L739.01-11.46L739.01-11.46Q738.82-13.25 738.82-15.04L738.82-15.04L738.82-15.04Q742.02-15.94 744.26-18.94L744.26-18.94L744.26-18.94Q746.50-21.95 746.50-25.47L746.50-25.47L746.50-25.47Q746.50-28.99 744.00-28.99L744.00-28.99L744.00-28.99Q742.21-28.99 740.80-27.01L740.80-27.01L740.80-27.01Q739.39-25.02 738.75-21.63L738.75-21.63L734.53 0L721.60 1.28L730.56-44.80L743.42-46.08L741.95-38.46L741.95-38.46Q740.99-33.09 739.71-30.34ZM775.81 1.28L775.81 1.28L775.81 1.28Q761.73 1.28 761.73-11.97L761.73-11.97L761.73-11.97Q761.73-21.38 766.91-27.46L766.91-27.46L766.91-27.46Q772.42-33.92 781.95-33.92L781.95-33.92L781.95-33.92Q788.86-33.92 792.38-30.72L792.38-30.72L792.38-30.72Q795.90-27.52 795.90-20.80L795.90-20.80L795.90-20.80Q795.90-10.56 790.40-4.61L790.40-4.61L790.40-4.61Q785.02 1.28 775.81 1.28ZM777.47-26.56L777.47-26.56L777.47-26.56Q776.70-24.83 776.10-22.24L776.10-22.24L776.10-22.24Q775.49-19.65 774.72-15.55L774.72-15.55L774.72-15.55Q773.95-11.46 773.95-6.40L773.95-6.40L773.95-6.40Q773.95-4.74 774.50-3.65L774.50-3.65L774.50-3.65Q775.04-2.56 776.51-2.56L776.51-2.56L776.51-2.56Q777.98-2.56 778.91-3.26L778.91-3.26L778.91-3.26Q779.84-3.97 780.54-5.63L780.54-5.63L780.54-5.63Q781.82-8.58 782.85-14.05L782.85-14.05L782.85-14.05Q783.87-19.52 783.97-21.89L783.97-21.89L783.97-21.89Q784.06-24.26 784.06-26.02L784.06-26.02L784.06-26.02Q784.06-27.78 783.55-28.93L783.55-28.93L783.55-28.93Q783.04-30.08 781.60-30.08L781.60-30.08L781.60-30.08Q780.16-30.08 779.20-29.18L779.20-29.18L779.20-29.18Q778.24-28.29 777.47-26.56Z" fill="url(#editing-gradient-gradient)"></path></g></g><style>text {
  font-size: 64px;
  font-family: Arial Black;
  dominant-baseline: central;
  text-anchor: middle;
}</style></svg>