<svg width="429.75499267578124px" height="120.8px" xmlns="http://www.w3.org/2000/svg" viewBox="35.12250366210938 14.600000000000001 429.75499267578124 120.8" style="background: rgba(0, 0, 0, 0);" preserveAspectRatio="xMidYMid"><defs><linearGradient id="editing-gradient-gradient" x1="0" x2="1" y1="0.5" y2="0.5" gradientUnits="objectBoundingBox"><stop offset="0" stop-color="#ffd700"></stop><stop offset="1" stop-color="#ffff00"></stop></linearGradient></defs><g><g transform="translate(99.76001462340355, 104.47000122070312)"><path d="M14.34 0L0.38 0L8.51-42.24L22.59-42.24L14.34 0ZM39.55-10.37L39.55-10.37L39.55-10.37Q37.50-11.84 37.50-14.66L37.50-14.66L37.50-14.66Q37.50-16.19 38.27-17.44L38.27-17.44L38.27-17.44Q39.04-18.69 40.58-18.88L40.58-18.88L53.18-18.88L53.18-18.88Q55.30-18.88 55.94-20.16L55.94-20.16L55.94-20.16Q56.96-19.58 57.41-18.37L57.41-18.37L57.41-18.37Q57.86-17.15 57.86-15.87L57.86-15.87L57.86-15.87Q57.86-14.59 56.86-13.34L56.86-13.34L56.86-13.34Q55.87-12.10 54.40-11.97L54.40-11.97L42.69-11.97L42.69-11.97Q41.34-11.97 40.70-11.55L40.70-11.55L40.70-11.55Q40.06-11.14 39.55-10.37ZM80.00-26.75L80.00-26.75L80.00-26.75Q82.18-29.82 85.47-31.87L85.47-31.87L85.47-31.87Q88.77-33.92 92.80-33.92L92.80-33.92L92.80-33.92Q96.83-33.92 98.75-32.64L98.75-32.64L111.30-33.92L106.94-9.34L106.94-9.34Q104.70 3.20 99.97 8.13L99.97 8.13L99.97 8.13Q95.42 12.80 86.59 12.80L86.59 12.80L86.59 12.80Q79.87 12.80 76.03 10.69L76.03 10.69L76.03 10.69Q72.19 8.58 72.19 5.06L72.19 5.06L72.19 5.06Q72.19 2.43 74.18 0.93L74.18 0.93L74.18 0.93Q76.16-0.58 79.23-0.58L79.23-0.58L79.23-0.58Q81.92-0.58 83.97 0.64L83.97 0.64L83.97 0.64Q85.18 1.28 85.76 2.18L85.76 2.18L85.76 2.18Q84.29 3.46 84.29 5.57L84.29 5.57L84.29 5.57Q84.29 8.32 86.85 8.32L86.85 8.32L86.85 8.32Q91.14 8.32 93.57-1.79L93.57-1.79L93.57-1.79Q94.27-4.54 94.85-7.30L94.85-7.30L94.85-7.30Q91.97-3.78 85.44-3.78L85.44-3.78L85.44-3.78Q80.90-3.78 78.27-5.95L78.27-5.95L78.27-5.95Q75.65-8.13 75.65-13.25L75.65-13.25L75.65-13.25Q75.65-16.45 76.74-20.06L76.74-20.06L76.74-20.06Q77.82-23.68 80.00-26.75ZM88.32-13.06L88.32-13.06L88.32-13.06Q88.32-8.70 90.56-8.70L90.56-8.70L90.56-8.70Q92.10-8.70 93.57-10.37L93.57-10.37L93.57-10.37Q94.72-11.71 95.17-13.70L95.17-13.70L98.43-30.14L98.43-30.14Q98.11-30.21 97.79-30.34L97.79-30.34L97.79-30.34Q97.15-30.59 96.32-30.59L96.32-30.59L96.32-30.59Q92.42-30.59 90.11-24.19L90.11-24.19L90.11-24.19Q88.32-19.20 88.32-13.06ZM116.58-1.92L116.58-1.92L116.58-1.92Q115.07-3.58 114.40-6.21L114.40-6.21L114.40-6.21Q113.73-8.83 113.73-13.12L113.73-13.12L113.73-13.12Q113.73-17.41 115.20-21.31L115.20-21.31L115.20-21.31Q116.67-25.22 119.36-28.03L119.36-28.03L119.36-28.03Q124.86-33.92 133.95-33.92L133.95-33.92L133.95-33.92Q137.22-33.92 139.58-32.83L139.58-32.83L150.53-33.92L145.79-8.96L145.79-8.96Q145.60-8.19 145.60-6.78L145.60-6.78L145.60-6.78Q145.60-5.38 146.46-4.48L146.46-4.48L146.46-4.48Q147.33-3.58 148.61-3.46L148.61-3.46L148.61-3.46Q147.97-1.28 145.63 0L145.63 0L145.63 0Q143.30 1.28 140.67 1.28L140.67 1.28L140.67 1.28Q138.05 1.28 136.29 0.29L136.29 0.29L136.29 0.29Q134.53-0.70 134.02-2.37L134.02-2.37L134.02-2.37Q132.99-0.77 130.82 0.26L130.82 0.26L130.82 0.26Q128.64 1.28 125.73 1.28L125.73 1.28L125.73 1.28Q122.82 1.28 120.45 0.51L120.45 0.51L120.45 0.51Q118.08-0.26 116.58-1.92ZM130.08-27.90L130.08-27.90L130.08-27.90Q129.34-26.75 128.70-24.80L128.70-24.80L128.70-24.80Q128.06-22.85 127.01-17.63L127.01-17.63L127.01-17.63Q125.95-12.42 125.95-8.70L125.95-8.70L125.95-8.70Q125.95-4.99 126.53-3.90L126.53-3.90L126.53-3.90Q127.10-2.82 128.13-2.82L128.13-2.82L128.13-2.82Q130.18-2.82 131.68-4.77L131.68-4.77L131.68-4.77Q133.18-6.72 133.76-10.18L133.76-10.18L137.15-28.93L137.15-28.93Q135.81-30.08 134.24-30.08L134.24-30.08L134.24-30.08Q132.67-30.08 131.74-29.57L131.74-29.57L131.74-29.57Q130.82-29.06 130.08-27.90ZM169.28-3.52L169.28-3.52L169.28-3.52Q167.30 1.28 160.96 1.28L160.96 1.28L160.96 1.28Q157.76 1.28 155.71-0.96L155.71-0.96L155.71-0.96Q154.05-2.82 154.05-4.93L154.05-4.93L154.05-4.93Q154.05-9.73 156.29-20.22L156.29-20.22L160.96-44.80L173.95-46.08L167.74-13.70L167.74-13.70Q166.66-8.96 166.66-7.30L166.66-7.30L166.66-7.30Q166.66-3.65 169.28-3.52ZM190.02-3.52L190.02-3.52L190.02-3.52Q188.03 1.28 181.70 1.28L181.70 1.28L181.70 1.28Q178.50 1.28 176.45-0.96L176.45-0.96L176.45-0.96Q174.78-2.82 174.78-4.93L174.78-4.93L174.78-4.93Q174.78-9.73 177.02-20.22L177.02-20.22L181.70-44.80L194.69-46.08L188.48-13.70L188.48-13.70Q187.39-8.96 187.39-7.30L187.39-7.30L187.39-7.30Q187.39-3.65 190.02-3.52ZM221.38-10.82L221.38-10.82L221.38-10.82Q222.98-9.73 222.98-7.33L222.98-7.33L222.98-7.33Q222.98-4.93 221.76-3.39L221.76-3.39L221.76-3.39Q220.54-1.86 218.56-0.83L218.56-0.83L218.56-0.83Q214.46 1.28 210.05 1.28L210.05 1.28L210.05 1.28Q205.63 1.28 203.04 0.32L203.04 0.32L203.04 0.32Q200.45-0.64 198.72-2.43L198.72-2.43L198.72-2.43Q195.33-5.82 195.33-12.03L195.33-12.03L195.33-12.03Q195.33-21.70 200.58-27.58L200.58-27.58L200.58-27.58Q206.21-33.92 216-33.92L216-33.92L216-33.92Q222.08-33.92 225.09-31.36L225.09-31.36L225.09-31.36Q227.33-29.44 227.33-26.30L227.33-26.30L227.33-26.30Q227.33-15.04 207.87-15.04L207.87-15.04L207.87-15.04Q207.62-13.38 207.62-11.97L207.62-11.97L207.62-11.97Q207.62-9.02 208.93-7.90L208.93-7.90L208.93-7.90Q210.24-6.78 212.67-6.78L212.67-6.78L212.67-6.78Q215.10-6.78 217.70-7.90L217.70-7.90L217.70-7.90Q220.29-9.02 221.38-10.82ZM208.32-17.79L208.32-17.79L208.32-17.79Q212.86-17.79 215.49-20.61L215.49-20.61L215.49-20.61Q218.11-23.30 218.11-27.58L218.11-27.58L218.11-27.58Q218.11-29.06 217.57-29.86L217.57-29.86L217.57-29.86Q217.02-30.66 215.94-30.66L215.94-30.66L215.94-30.66Q214.85-30.66 213.92-30.24L213.92-30.24L213.92-30.24Q212.99-29.82 212.03-28.42L212.03-28.42L212.03-28.42Q209.66-25.22 208.32-17.79ZM249.54-17.98L249.54-17.98L249.54-17.98Q251.84-22.08 251.84-26.24L251.84-26.24L251.84-26.24Q251.84-28.99 249.86-28.99L249.86-28.99L249.86-28.99Q248.32-28.99 246.72-26.37L246.72-26.37L246.72-26.37Q245.06-23.74 244.54-20.35L244.54-20.35L241.22 0L227.97 1.28L234.50-32.64L245.06-33.92L243.90-27.46L243.90-27.46Q247.04-33.92 254.08-33.92L254.08-33.92L254.08-33.92Q257.79-33.92 259.81-32L259.81-32L259.81-32Q261.82-30.08 261.82-26.14L261.82-26.14L261.82-26.14Q261.82-22.21 259.23-19.71L259.23-19.71L259.23-19.71Q256.64-17.22 252.22-17.22L252.22-17.22L252.22-17.22Q250.30-17.22 249.54-17.98ZM283.20-7.23L283.20-7.23L283.20-7.23Q279.87-3.78 273.79-3.78L273.79-3.78L273.79-3.78Q266.18-3.78 264.58-9.34L264.58-9.34L264.58-9.34Q264.06-11.01 264.06-12.86L264.06-12.86L264.06-12.86Q264.06-14.72 264.45-16.64L264.45-16.64L267.46-32.64L280.45-33.92L276.93-15.30L276.93-15.30Q276.80-14.46 276.61-13.57L276.61-13.57L276.61-13.57Q276.42-12.67 276.42-11.74L276.42-11.74L276.42-11.74Q276.42-10.82 276.74-10.21L276.74-10.21L276.74-10.21Q277.06-9.60 277.50-9.22L277.50-9.22L277.50-9.22Q278.27-8.70 279.65-8.70L279.65-8.70L279.65-8.70Q281.02-8.70 282.21-10.37L282.21-10.37L282.21-10.37Q283.39-12.03 283.97-14.91L283.97-14.91L287.49-32.64L300.10-33.92L295.30-8.77L295.30-8.77Q292.93 3.52 288.06 8.38L288.06 8.38L288.06 8.38Q285.57 10.88 282.34 11.87L282.34 11.87L282.34 11.87Q279.10 12.86 274.94 12.86L274.94 12.86L274.94 12.86Q268.22 12.86 264.38 10.75L264.38 10.75L264.38 10.75Q260.54 8.64 260.54 5.12L260.54 5.12L260.54 5.12Q260.54 2.50 262.53 0.99L262.53 0.99L262.53 0.99Q264.51-0.51 267.58-0.51L267.58-0.51L267.58-0.51Q270.27-0.51 272.32 0.64L272.32 0.64L272.32 0.64Q273.54 1.34 274.11 2.24L274.11 2.24L274.11 2.24Q272.64 3.52 272.64 5.63L272.64 5.63L272.64 5.63Q272.64 8.45 275.20 8.45L275.20 8.45L275.20 8.45Q279.42 8.45 281.86-1.28L281.86-1.28L281.86-1.28Q282.56-4.16 283.20-7.23Z" fill="url(#editing-gradient-gradient)"></path></g></g><style>text {
  font-size: 64px;
  font-family: Arial Black;
  dominant-baseline: central;
  text-anchor: middle;
}</style></svg>